# xmcd
#
# Track frame offsets: 
#        150
#        27317
#        52210
#        78825
#        103171
#        125249
#        150943
#        167979
#        196634
#        244161
#
# Disc length: 3572 seconds
#
# Revision: 0
# Processed by: cddbd v1.5.2PL0 Copyright (c) Steve Scherf et al.
# Submitted via: ExactAudioCopy v1.0b3
#
DISCID=800df20a
DTITLE=Quang Le, VA - Trai Tim Bo Tat
DYEAR=2010
DGENRE=
TTITLE0=Quang Le, Huong Thuy - Me tu bi
TTITLE1=Quang Le - Trai tim Bo Tat
TTITLE2=Quang Le, Nguyen Le - Ngan mat ngan tay
TTITLE3=Quang Le - Tinh Me
TTITLE4=Quynh Dung - Ta on Me
TTITLE5=Quang Le - Tu Dam que huong toi
TTITLE6=Quynh Dung - Me la Phat
TTITLE7=Quang Le - Me tu bi
TTITLE8=Quang Le, Huong Thuy - Hoa bat diet
TTITLE9=Quang Le - Nhanh duong cuu kho
EXTD=
EXTT0=
EXTT1=
EXTT2=
EXTT3=
EXTT4=
EXTT5=
EXTT6=
EXTT7=
EXTT8=
EXTT9=
PLAYORDER=
